# xmcd
#
# Track frame offsets: 
#        150
#        18607
#        36826
#        60749
#        79971
#        94389
#        108349
#        124990
#        142742
#        159173
#        175395
#        189186
#
# Disc length: 2882 seconds
#
# Revision: 2
# Processed by: cddbd v1.5.2PL0 Copyright (c) Steve Scherf et al.
# Submitted via: ExactAudioCopyFreeDBPlugin 1.0
#
DISCID=9b0b400c
DTITLE=Loomer - Songs Of The Wild West Island
DYEAR=2006
DGENRE=Alternative Country
TTITLE0=Bang The Nails
TTITLE1=Anastasia
TTITLE2=Caramel Heart
TTITLE3=Only Lovers
TTITLE4=Old Grey Ford
TTITLE5=Burden Of Proof
TTITLE6=Dirt Angel
TTITLE7=Turnbuckle
TTITLE8=Pull Me In
TTITLE9=Sunday Driver Down
TTITLE10=Paper Doll
TTITLE11=Endless Holiday
EXTD=
EXTT0=
EXTT1=
EXTT2=
EXTT3=
EXTT4=
EXTT5=
EXTT6=
EXTT7=
EXTT8=
EXTT9=
EXTT10=
EXTT11=
PLAYORDER=
